# xmcd CD database file
#
# Track frame offsets:
#	182
#	11660
#	31195
#	46272
#	64587
#	82360
#	94845
#	118770
#	131925
#	148227
#	160720
#	176717
#
# Disc length: 2553 seconds
#
# Revision: 0
# Processed by: cddbd v1.4PL0 Copyright (c) Steve Scherf et al.
# Submitted via: CDex 1.50beta10
#
DISCID=a909f70c
DTITLE=Cousin Joe - Bad Luck Blues
DYEAR=1994
DGENRE=Blues
TTITLE0=Box Car Shorty
TTITLE1=Life Is a One Way Ticket
TTITLE2=Take a Lesson from Your Teacher
TTITLE3=Bad Luck Blues
TTITLE4=I'm Living on Borrowed Time
TTITLE5=That's Enough
TTITLE6=Goin' Down Slow
TTITLE7=The Chicken and the Hawk
TTITLE8=Levee Blues
TTITLE9=Railroad Porter Blues
TTITLE10=I Don't Want No Second Hand Love
TTITLE11=Tore Down
EXTD=YEAR: 1994
EXTT0=
EXTT1=
EXTT2=
EXTT3=
EXTT4=
EXTT5=
EXTT6=
EXTT7=
EXTT8=
EXTT9=
EXTT10=
EXTT11=
PLAYORDER=
